# 3ds Max Wavefront OBJ Exporter v0.97b - (c)2007 guruware
# File Created: 17.02.2019 21:28:24

mtllib 9.mtl

#
# object _model7_prt___B8BD92027B5DE85C26B3AB70EFCCE0FF7452420D___4256533D86D1BB37A05181BC0BA67B73FC906D1C
#

v  -0.041 1.614 0.125
v  -0.041 0.000 0.125
v  2.518 0.000 0.125
v  2.518 1.102 0.125
v  0.746 1.102 0.125
v  0.746 1.614 0.125
v  2.203 0.079 0.125
v  1.888 0.079 0.125
v  1.888 0.394 0.125
v  2.203 0.394 0.125
v  0.549 0.256 -0.899
v  1.888 0.256 -0.899
v  1.888 0.394 -0.899
v  2.203 0.394 -0.899
v  2.203 0.256 -0.899
v  2.518 0.256 -0.899
v  2.518 0.846 -0.899
v  1.730 0.846 -0.899
v  1.730 1.102 -0.899
v  1.140 1.102 -0.899
v  1.140 0.846 -0.899
v  0.549 0.846 -0.899
v  0.549 0.256 -0.111
v  1.888 0.256 -0.111
v  2.203 0.256 -0.111
v  2.518 0.256 -0.111
v  2.203 0.394 -0.111
v  1.888 0.394 -0.111
v  0.549 0.846 -0.111
v  1.140 0.846 -0.111
v  1.140 1.102 -0.111
v  1.730 1.102 -0.111
v  1.730 0.846 -0.111
v  2.518 0.846 -0.111
v  -0.041 1.614 -1.135
v  -0.041 0.000 -1.135
v  -0.041 1.122 -0.072
v  -0.041 0.256 -0.072
v  -0.041 0.256 -0.938
v  -0.041 1.122 -0.938
v  0.156 0.256 -0.938
v  0.156 0.256 -0.072
v  0.156 0.000 -0.072
v  0.156 0.000 -0.938
v  0.156 1.122 -0.072
v  0.156 1.122 -0.938
v  0.156 1.614 -0.938
v  0.156 1.614 -0.072
v  0.746 1.614 -1.135
v  0.549 1.614 -0.938
v  0.549 1.614 -0.072
v  2.518 0.000 -1.135
v  2.518 1.102 -1.135
v  0.746 1.102 -1.135
v  0.549 0.000 -0.072
v  0.549 0.000 -0.938
v  2.203 0.394 -1.135
v  1.888 0.394 -1.135
v  1.888 0.079 -1.135
v  2.203 0.079 -1.135
# 60 vertices

vn 0.000 0.000 2.540
vn 0.000 2.540 -0.000
vn 0.000 -0.000 -2.540
vn -2.540 0.000 -0.000
vn 2.540 0.000 -0.000
vn 0.000 -2.540 0.000
vn 0.000 -2.540 -0.000
vn -0.000 -0.000 -2.540
vn 2.540 0.000 0.000
vn -2.540 -0.000 -0.000
vn -2.540 0.000 0.000
# 11 vertex normals

vt -4.100 2.000 0.000
vt -4.100 0.000 0.000
vt -2.800 2.000 0.000
vt 0.000 0.000 0.000
vt -1.000 4.900 0.000
vt -0.200 4.900 0.000
vt 0.000 6.500 0.000
vt -0.200 5.700 0.000
vt -1.000 5.700 0.000
vt -2.800 6.500 0.000
vt 1.500 8.400 0.000
vt 1.150 8.400 0.000
vt 1.500 5.000 0.000
vt 0.000 5.000 0.000
vt -0.000 6.500 0.000
vt 0.000 8.000 0.000
vt -0.650 8.000 0.000
vt 1.150 9.200 0.000
vt 0.000 10.000 0.000
vt 1.500 10.000 0.000
vt 1.500 9.200 0.000
vt -0.650 6.500 0.000
vt 5.000 -2.000 0.000
vt 8.400 -2.000 0.000
vt 5.000 0.000 0.000
vt 8.400 0.000 0.000
vt 10.000 0.000 0.000
vt 9.200 0.000 0.000
vt 10.000 -2.000 0.000
vt 9.200 -2.000 0.000
vt 0.350 8.400 0.000
vt 1.500 8.000 0.000
vt 0.350 9.200 0.000
vt -0.000 10.000 0.000
vt 0.000 8.400 0.000
vt 1.500 6.500 0.000
vt 2.150 6.500 0.000
vt 2.150 8.000 0.000
vt 0.000 9.200 0.000
vt 1.300 -3.200 0.000
vt 0.050 -2.700 0.000
vt -2.800 -3.200 0.000
vt -2.150 -2.700 0.000
vt -2.150 -0.500 0.000
vt 0.050 -0.500 0.000
vt 1.300 0.000 0.000
vt -2.800 0.000 0.000
vt -6.550 -2.200 0.000
vt -5.900 -2.200 0.000
vt -6.550 -0.000 0.000
vt -5.900 0.000 0.000
vt -8.750 0.000 0.000
vt -10.000 0.000 0.000
vt -8.750 -2.200 0.000
vt -10.000 -2.200 0.000
vt -0.000 0.000 0.000
vt 0.500 2.700 0.000
vt -0.000 3.200 0.000
vt 1.500 2.700 0.000
vt 2.000 3.200 0.000
vt 2.000 0.000 0.000
vt 1.500 0.500 0.000
vt 0.500 0.500 0.000
vt 4.000 0.100 0.000
vt 3.500 0.100 0.000
vt 4.000 -2.100 0.000
vt 3.500 -2.100 0.000
vt -5.000 2.000 0.000
vt -6.500 2.000 0.000
vt -5.000 0.000 0.000
vt -6.500 0.000 0.000
vt -0.000 -3.200 0.000
vt -2.150 -2.600 0.000
vt -2.150 -0.600 0.000
vt -0.650 -0.600 0.000
vt -0.650 -2.600 0.000
vt 0.000 -3.200 0.000
vt -2.000 -0.600 0.000
vt -4.500 0.000 0.000
vt -3.500 -0.600 0.000
vt -4.500 -3.200 0.000
vt -3.500 -2.600 0.000
vt -2.000 -2.600 0.000
vt -1.500 -2.700 0.000
vt -6.500 -3.200 0.000
vt -1.500 -0.500 0.000
vt -0.500 -0.500 0.000
vt -0.500 -2.700 0.000
vt 4.100 0.000 0.000
vt 2.800 2.000 0.000
vt 1.000 4.900 0.000
vt 0.200 4.900 0.000
vt 4.100 2.000 0.000
vt 2.800 6.500 0.000
vt 1.000 5.700 0.000
vt 0.200 5.700 0.000
vt -8.000 2.000 0.000
vt -10.000 2.000 0.000
vt -8.000 0.000 0.000
vt -0.350 0.000 0.000
vt -1.000 0.000 0.000
vt -0.350 -2.000 0.000
vt -1.000 -2.000 0.000
vt 0.350 0.000 0.000
vt 1.000 0.000 0.000
vt 0.350 2.000 0.000
vt 1.000 2.000 0.000
vt 5.900 -0.000 0.000
vt 6.550 -0.000 0.000
vt 5.900 1.000 0.000
vt 8.750 -0.000 0.000
vt 10.000 1.000 0.000
vt 10.000 -0.000 0.000
vt 6.550 -0.500 0.000
vt 8.750 -0.500 0.000
vt 5.900 0.000 0.000
vt 6.550 2.100 0.000
vt 5.900 2.200 0.000
vt 8.050 2.100 0.000
vt 10.000 2.200 0.000
vt 8.050 0.100 0.000
vt 6.550 0.100 0.000
vt -10.000 -1.000 0.000
vt -8.750 -1.000 0.000
vt -6.550 -1.000 0.000
vt -5.900 -1.000 0.000
vt -8.750 -1.500 0.000
vt -6.550 -1.500 0.000
vt 0.500 -2.200 0.000
vt 1.000 -2.200 0.000
vt 0.500 -0.000 0.000
vt 0.000 -0.320 0.000
vt -0.800 -0.320 0.000
vt 0.000 -0.920 0.000
vt -0.800 -0.920 0.000
vt -0.800 -3.520 0.000
vt 0.000 -3.520 0.000
vt -0.450 -2.920 0.000
vt -0.000 -3.520 0.000
vt -0.450 -0.920 0.000
vt -0.000 -0.320 0.000
vt -0.800 -2.920 0.000
vt 0.000 -2.920 0.000
vt -0.350 -0.920 0.000
vt -0.350 -2.920 0.000
# 145 texture coords

o _model7_prt___B8BD92027B5DE85C26B3AB70EFCCE0FF7452420D___4256533D86D1BB37A05181BC0BA67B73FC906D1C
g _model7_prt___B8BD92027B5DE85C26B3AB70EFCCE0FF7452420D___4256533D86D1BB37A05181BC0BA67B73FC906D1C
usemtl Orange
s off
f 6/1/1 1/2/1 5/3/1 
f 5/3/1 1/2/1 2/4/1 
f 5/3/1 2/4/1 9/5/1 
f 9/5/1 2/4/1 8/6/1 
f 8/6/1 2/4/1 3/7/1 
f 8/6/1 3/7/1 7/8/1 
f 7/8/1 3/7/1 10/9/1 
f 10/9/1 3/7/1 4/10/1 
f 10/9/1 4/10/1 9/5/1 
f 9/5/1 4/10/1 5/3/1 
f 12/11/1 13/12/1 11/13/1 
f 11/13/1 13/12/1 22/14/1 
f 22/14/1 13/12/1 21/15/1 
f 21/15/1 13/12/1 18/16/1 
f 21/15/1 18/16/1 19/17/1 
f 13/12/1 14/18/1 18/16/1 
f 18/16/1 14/18/1 17/19/1 
f 17/19/1 14/18/1 16/20/1 
f 16/20/1 14/18/1 15/21/1 
f 19/17/1 20/22/1 21/15/1 
f 23/23/2 24/24/2 11/25/2 
f 11/25/2 24/24/2 12/26/2 
f 16/27/2 15/28/2 26/29/2 
f 26/29/2 15/28/2 25/30/2 
f 28/31/3 33/32/3 27/33/3 
f 27/33/3 33/32/3 34/20/3 
f 27/33/3 34/20/3 26/34/3 
f 24/35/3 23/14/3 28/31/3 
f 28/31/3 23/14/3 29/13/3 
f 28/31/3 29/13/3 30/36/3 
f 28/31/3 30/36/3 33/32/3 
f 33/32/3 30/36/3 31/37/3 
f 33/32/3 31/37/3 32/38/3 
f 26/34/3 25/39/3 27/33/3 
f 1/40/4 37/41/4 2/42/4 
f 2/42/4 37/41/4 38/43/4 
f 2/42/4 38/43/4 39/44/4 
f 37/41/4 1/40/4 40/45/4 
f 40/45/4 1/40/4 35/46/4 
f 40/45/4 35/46/4 36/47/4 
f 40/45/4 36/47/4 39/44/4 
f 39/44/4 36/47/4 2/42/4 
f 42/48/5 43/49/5 41/50/5 
f 41/50/5 43/49/5 44/51/5 
f 46/52/5 47/53/5 45/54/5 
f 45/54/5 47/53/5 48/55/5 
f 1/56/2 47/57/2 35/58/2 
f 35/58/2 47/57/2 50/59/2 
f 35/58/2 50/59/2 49/60/2 
f 49/60/2 50/59/2 6/61/2 
f 6/61/2 50/59/2 51/62/2 
f 6/61/2 51/62/2 48/63/2 
f 47/57/2 1/56/2 48/63/2 
f 48/63/2 1/56/2 6/61/2 
f 41/64/2 39/65/2 42/66/2 
f 42/66/2 39/65/2 38/67/2 
f 22/68/6 21/69/6 29/70/6 
f 29/70/6 21/69/6 30/71/6 
f 3/72/5 34/73/5 4/42/5 
f 4/42/5 34/73/5 17/74/5 
f 4/42/5 17/74/5 53/47/5 
f 53/47/5 17/74/5 16/75/5 
f 53/47/5 16/75/5 52/4/5 
f 52/4/5 16/75/5 3/72/5 
f 3/72/5 16/75/5 26/76/5 
f 3/72/5 26/76/5 34/73/5 
f 4/77/2 53/4/2 19/78/2 
f 19/78/2 53/4/2 54/79/2 
f 19/78/2 54/79/2 20/80/2 
f 20/80/2 54/79/2 5/81/2 
f 20/80/2 5/81/2 31/82/2 
f 31/82/2 5/81/2 32/83/2 
f 32/83/2 5/81/2 4/77/2 
f 32/83/2 4/77/2 19/78/2 
f 2/77/7 55/84/7 3/85/7 
f 3/85/7 55/84/7 56/86/7 
f 3/85/7 56/86/7 52/71/7 
f 52/71/7 56/86/7 36/4/7 
f 36/4/7 56/86/7 44/87/7 
f 36/4/7 44/87/7 2/77/7 
f 2/77/7 44/87/7 43/88/7 
f 2/77/7 43/88/7 55/84/7 
f 35/89/8 54/90/8 36/56/8 
f 36/56/8 54/90/8 58/91/8 
f 36/56/8 58/91/8 59/92/8 
f 35/89/8 49/93/8 54/90/8 
f 54/90/8 53/94/8 58/91/8 
f 58/91/8 53/94/8 57/95/8 
f 57/95/8 53/94/8 52/15/8 
f 57/95/8 52/15/8 60/96/8 
f 60/96/8 52/15/8 59/92/8 
f 59/92/8 52/15/8 36/56/8 
f 54/46/5 49/4/5 5/40/5 
f 5/40/5 49/4/5 6/72/5 
f 18/97/6 17/98/6 33/99/6 
f 33/99/6 17/98/6 34/53/6 
f 21/100/9 20/101/9 30/102/9 
f 30/102/9 20/101/9 31/103/9 
f 33/104/10 32/105/10 18/106/10 
f 18/106/10 32/105/10 19/107/10 
f 43/108/8 42/109/8 55/110/8 
f 55/110/8 42/109/8 45/111/8 
f 55/110/8 45/111/8 51/112/8 
f 51/112/8 45/111/8 48/113/8 
f 38/114/8 37/115/8 42/109/8 
f 42/109/8 37/115/8 45/111/8 
f 55/116/11 11/117/11 56/118/11 
f 56/118/11 11/117/11 22/119/11 
f 56/118/11 22/119/11 50/120/11 
f 50/120/11 22/119/11 51/27/11 
f 51/27/11 22/119/11 29/121/11 
f 51/27/11 29/121/11 55/116/11 
f 55/116/11 29/121/11 23/122/11 
f 55/116/11 23/122/11 11/117/11 
f 47/123/1 46/124/1 50/53/1 
f 50/53/1 46/124/1 56/51/1 
f 56/51/1 46/124/1 41/125/1 
f 56/51/1 41/125/1 44/126/1 
f 40/127/1 39/128/1 46/124/1 
f 46/124/1 39/128/1 41/125/1 
f 45/129/6 37/130/6 46/131/6 
f 46/131/6 37/130/6 40/105/6 
f 58/132/7 57/133/7 13/134/7 
f 13/134/7 57/133/7 14/135/7 
f 8/136/2 7/137/2 59/133/2 
f 59/133/2 7/137/2 60/132/2 
f 24/138/5 8/139/5 12/140/5 
f 12/140/5 8/139/5 59/141/5 
f 12/140/5 59/141/5 58/133/5 
f 28/142/5 9/136/5 24/138/5 
f 24/138/5 9/136/5 8/139/5 
f 58/133/5 13/135/5 12/140/5 
f 10/136/7 9/137/7 27/142/7 
f 27/142/7 9/137/7 28/143/7 
f 14/134/4 57/132/4 15/144/4 
f 15/144/4 57/132/4 60/133/4 
f 15/144/4 60/133/4 7/136/4 
f 15/144/4 7/136/4 25/145/4 
f 25/145/4 7/136/4 10/137/4 
f 25/145/4 10/137/4 27/143/4 
# 0 polygons - 140 triangles

#
# object _model7_prt___B8BD92027B5DE85C26B3AB70EFCCE0FF7452420D___C0C5173378EC37942F8C2E44617D31F3E269D408_jt_obj_1
#

v  0.549 0.256 -0.111
v  1.888 0.256 -0.111
v  0.549 0.256 -0.899
v  1.888 0.256 -0.899
v  0.549 0.256 -0.111
v  0.549 0.256 -0.899
v  0.549 0.000 -0.072
v  0.549 0.256 -0.899
v  0.549 0.000 -0.938
v  0.549 0.846 -0.899
v  0.549 1.614 -0.938
v  0.549 0.846 -0.899
v  0.549 1.614 -0.072
v  0.549 0.846 -0.111
v  0.549 0.000 -0.072
v  0.549 0.256 -0.111
v  0.549 0.846 -0.111
v  0.549 0.846 -0.899
v  1.140 0.846 -0.111
v  1.140 0.846 -0.899
v  1.140 0.846 -0.111
v  1.140 0.846 -0.899
v  1.140 1.102 -0.111
v  1.140 1.102 -0.899
v  -0.041 1.614 0.125
v  0.156 1.614 -0.938
v  -0.041 1.614 -1.135
v  0.549 1.614 -0.938
v  0.746 1.614 -1.135
v  0.549 1.614 -0.072
v  0.746 1.614 0.125
v  0.549 1.614 -0.072
v  -0.041 1.614 0.125
v  0.156 1.614 -0.072
v  0.156 1.614 -0.938
v  0.746 1.614 -1.135
v  0.746 1.614 0.125
v  0.746 1.102 -1.135
v  0.746 1.102 0.125
v  0.156 1.122 -0.938
v  0.156 1.614 -0.938
v  0.156 1.122 -0.072
v  0.156 1.614 -0.072
v  -0.041 1.122 -0.938
v  0.156 1.122 -0.938
v  -0.041 1.122 -0.072
v  0.156 1.122 -0.072
v  -0.041 0.000 -1.135
v  -0.041 1.122 -0.938
v  -0.041 1.614 -1.135
v  -0.041 1.122 -0.072
v  -0.041 1.614 0.125
v  -0.041 1.122 -0.072
v  -0.041 0.000 0.125
v  -0.041 0.256 -0.072
v  -0.041 0.000 0.125
v  -0.041 0.256 -0.938
v  -0.041 0.000 -1.135
v  -0.041 1.122 -0.938
v  0.156 0.000 -0.072
v  0.156 0.256 -0.072
v  0.549 0.000 -0.072
v  0.156 0.256 -0.072
v  0.549 1.614 -0.072
v  0.156 1.122 -0.072
v  0.156 1.614 -0.072
v  0.156 0.256 -0.072
v  -0.041 0.256 -0.072
v  0.156 1.122 -0.072
v  -0.041 1.122 -0.072
v  0.156 0.000 -0.938
v  0.549 0.000 -0.938
v  0.156 0.256 -0.938
v  0.549 1.614 -0.938
v  0.156 1.122 -0.938
v  0.156 1.614 -0.938
v  0.156 1.122 -0.938
v  -0.041 1.122 -0.938
v  0.156 0.256 -0.938
v  -0.041 0.256 -0.938
v  0.156 0.000 -0.938
v  0.156 0.256 -0.938
v  0.156 0.000 -0.072
v  0.156 0.256 -0.072
v  0.156 0.256 -0.072
v  0.156 0.256 -0.938
v  -0.041 0.256 -0.072
v  -0.041 0.256 -0.938
v  0.549 0.000 -0.938
v  0.156 0.000 -0.938
v  -0.041 0.000 -1.135
v  0.156 0.000 -0.072
v  -0.041 0.000 0.125
v  0.549 0.000 -0.072
v  2.518 0.000 0.125
v  0.549 0.000 -0.072
v  2.518 0.000 -1.135
v  0.549 0.000 -0.938
v  -0.041 0.000 -1.135
v  0.746 1.102 -1.135
v  1.730 1.102 -0.899
v  2.518 1.102 -1.135
v  1.730 1.102 -0.899
v  2.518 1.102 0.125
v  1.730 1.102 -0.111
v  0.746 1.102 0.125
v  1.140 1.102 -0.111
v  0.746 1.102 -1.135
v  1.140 1.102 -0.899
v  1.730 1.102 -0.899
v  1.730 1.102 -0.111
v  1.730 1.102 -0.899
v  1.730 0.846 -0.111
v  1.730 0.846 -0.899
v  2.518 0.846 -0.899
v  2.518 0.846 -0.111
v  1.730 0.846 -0.899
v  1.730 0.846 -0.111
v  2.518 0.256 -0.111
v  2.518 0.000 0.125
v  2.518 0.256 -0.899
v  2.518 0.000 -1.135
v  2.518 0.846 -0.899
v  2.518 1.102 -1.135
v  2.518 0.846 -0.111
v  2.518 1.102 0.125
v  2.518 0.256 -0.111
v  2.518 0.000 0.125
v  2.518 0.256 -0.111
v  2.518 0.256 -0.899
v  2.203 0.256 -0.111
v  2.203 0.256 -0.899
v  1.730 1.102 -0.899
v  1.140 1.102 -0.899
v  1.730 0.846 -0.899
v  1.140 0.846 -0.899
v  0.549 0.256 -0.899
v  0.549 0.846 -0.899
v  1.888 0.256 -0.899
v  1.888 0.394 -0.899
v  0.549 0.256 -0.899
v  1.888 0.394 -0.899
v  1.730 0.846 -0.899
v  2.203 0.394 -0.899
v  2.518 0.846 -0.899
v  2.203 0.394 -0.899
v  2.518 0.256 -0.899
v  2.203 0.256 -0.899
v  2.203 0.394 -0.899
v  1.888 0.394 -0.899
v  2.203 0.394 -1.135
v  1.888 0.394 -1.135
v  1.730 1.102 -0.111
v  1.730 0.846 -0.111
v  1.140 1.102 -0.111
v  1.888 0.394 -0.111
v  1.140 0.846 -0.111
v  1.888 0.256 -0.111
v  1.140 0.846 -0.111
v  0.549 0.256 -0.111
v  0.549 0.846 -0.111
v  1.888 0.394 -0.111
v  1.730 0.846 -0.111
v  2.203 0.394 -0.111
v  2.518 0.846 -0.111
v  2.203 0.394 -0.111
v  2.518 0.256 -0.111
v  2.203 0.256 -0.111
v  2.203 0.394 0.125
v  1.888 0.394 0.125
v  2.203 0.394 -0.111
v  1.888 0.394 -0.111
v  0.746 1.614 0.125
v  -0.041 1.614 0.125
v  0.746 1.102 0.125
v  -0.041 0.000 0.125
v  1.888 0.394 0.125
v  -0.041 0.000 0.125
v  1.888 0.079 0.125
v  2.518 0.000 0.125
v  2.203 0.079 0.125
v  2.518 0.000 0.125
v  2.203 0.394 0.125
v  2.518 1.102 0.125
v  1.888 0.394 0.125
v  0.746 1.102 0.125
v  0.746 1.614 -1.135
v  0.746 1.102 -1.135
v  -0.041 1.614 -1.135
v  0.746 1.102 -1.135
v  -0.041 0.000 -1.135
v  1.888 0.394 -1.135
v  -0.041 0.000 -1.135
v  1.888 0.079 -1.135
v  2.518 0.000 -1.135
v  2.203 0.079 -1.135
v  2.518 0.000 -1.135
v  2.203 0.394 -1.135
v  2.518 1.102 -1.135
v  1.888 0.394 -1.135
v  0.746 1.102 -1.135
v  1.888 0.394 -0.111
v  1.888 0.394 0.125
v  1.888 0.256 -0.111
v  1.888 0.079 0.125
v  1.888 0.256 -0.899
v  1.888 0.079 -1.135
v  1.888 0.256 -0.899
v  1.888 0.394 -1.135
v  1.888 0.394 -0.899
v  2.203 0.394 -0.111
v  2.203 0.256 -0.111
v  2.203 0.394 0.125
v  2.203 0.256 -0.111
v  2.203 0.079 0.125
v  2.203 0.256 -0.899
v  2.203 0.079 -1.135
v  2.203 0.256 -0.899
v  2.203 0.394 -1.135
v  2.203 0.394 -0.899
v  1.888 0.079 -1.135
v  1.888 0.079 0.125
v  2.203 0.079 -1.135
v  2.203 0.079 0.125
# 224 vertices

vn 0.000 0.025 -0.000
vn -0.025 0.000 0.000
vn 0.000 -0.025 0.000
vn 0.025 0.000 0.000
vn -0.025 0.000 -0.000
vn -0.000 -0.000 -0.025
vn 0.000 0.000 0.025
vn 0.025 0.000 -0.000
vn 0.000 -0.025 -0.000
vn -0.025 -0.000 -0.000
vn 0.000 -0.000 -0.025
# 11 vertex normals

o _model7_prt___B8BD92027B5DE85C26B3AB70EFCCE0FF7452420D___C0C5173378EC37942F8C2E44617D31F3E269D408_jt_obj_1
g _model7_prt___B8BD92027B5DE85C26B3AB70EFCCE0FF7452420D___C0C5173378EC37942F8C2E44617D31F3E269D408_jt_obj_1
usemtl Orange
s off
f 61//12 62//12 63//12 
f 63//12 62//12 64//12 
f 65//13 66//13 67//13 
f 67//13 66//13 68//13 
f 67//13 68//13 69//13 
f 69//13 68//13 70//13 
f 69//13 70//13 71//13 
f 71//13 70//13 72//13 
f 71//13 72//13 73//13 
f 73//13 72//13 74//13 
f 73//13 74//13 75//13 
f 75//13 74//13 76//13 
f 77//14 78//14 79//14 
f 79//14 78//14 80//14 
f 81//15 82//15 83//15 
f 83//15 82//15 84//15 
f 85//12 86//12 87//12 
f 87//12 86//12 88//12 
f 87//12 88//12 89//12 
f 89//12 88//12 90//12 
f 89//12 90//12 91//12 
f 91//12 90//12 92//12 
f 91//12 92//12 93//12 
f 93//12 92//12 94//12 
f 93//12 94//12 95//12 
f 96//15 97//15 98//15 
f 98//15 97//15 99//15 
f 100//15 101//15 102//15 
f 102//15 101//15 103//15 
f 104//14 105//14 106//14 
f 106//14 105//14 107//14 
f 108//16 109//16 110//16 
f 110//16 109//16 111//16 
f 110//16 111//16 112//16 
f 112//16 111//16 113//16 
f 112//16 113//16 114//16 
f 114//16 113//16 115//16 
f 114//16 115//16 116//16 
f 116//16 115//16 117//16 
f 116//16 117//16 118//16 
f 118//16 117//16 119//16 
f 120//17 121//17 122//17 
f 122//17 121//17 123//17 
f 122//17 123//17 124//17 
f 124//17 123//17 125//17 
f 124//17 125//17 126//17 
f 127//17 128//17 129//17 
f 129//17 128//17 130//17 
f 131//18 132//18 133//18 
f 133//18 132//18 134//18 
f 133//18 134//18 135//18 
f 135//18 134//18 136//18 
f 137//18 138//18 139//18 
f 139//18 138//18 140//18 
f 141//19 142//19 143//19 
f 143//19 142//19 144//19 
f 145//12 146//12 147//12 
f 147//12 146//12 148//12 
f 149//20 150//20 151//20 
f 151//20 150//20 152//20 
f 151//20 152//20 153//20 
f 153//20 152//20 154//20 
f 153//20 154//20 155//20 
f 155//20 154//20 156//20 
f 155//20 156//20 157//20 
f 157//20 156//20 158//20 
f 157//20 158//20 159//20 
f 160//12 161//12 162//12 
f 162//12 161//12 163//12 
f 162//12 163//12 164//12 
f 164//12 163//12 165//12 
f 164//12 165//12 166//12 
f 166//12 165//12 167//12 
f 166//12 167//12 168//12 
f 168//12 167//12 169//12 
f 168//12 169//12 170//12 
f 171//21 172//21 173//21 
f 173//21 172//21 174//21 
f 175//20 176//20 177//20 
f 177//20 176//20 178//20 
f 179//19 180//19 181//19 
f 181//19 180//19 182//19 
f 181//19 182//19 183//19 
f 183//19 182//19 184//19 
f 183//19 184//19 185//19 
f 185//19 184//19 186//19 
f 185//19 186//19 187//19 
f 187//19 186//19 188//19 
f 189//12 190//12 191//12 
f 191//12 190//12 192//12 
f 193//18 194//18 195//18 
f 195//18 194//18 196//18 
f 195//18 196//18 197//18 
f 197//18 196//18 198//18 
f 199//18 200//18 201//18 
f 201//18 200//18 202//18 
f 201//18 202//18 203//18 
f 203//18 202//18 204//18 
f 203//18 204//18 205//18 
f 205//18 204//18 206//18 
f 205//18 206//18 207//18 
f 207//18 206//18 208//18 
f 209//20 210//20 211//20 
f 211//20 210//20 212//20 
f 213//22 214//22 215//22 
f 215//22 214//22 216//22 
f 215//22 216//22 217//22 
f 217//22 216//22 218//22 
f 217//22 218//22 219//22 
f 219//22 218//22 220//22 
f 219//22 220//22 221//22 
f 222//22 223//22 224//22 
f 224//22 223//22 225//22 
f 224//22 225//22 226//22 
f 226//22 225//22 227//22 
f 226//22 227//22 228//22 
f 229//20 230//20 231//20 
f 231//20 230//20 232//20 
f 233//18 234//18 235//18 
f 235//18 234//18 236//18 
f 235//18 236//18 237//18 
f 237//18 236//18 238//18 
f 237//18 238//18 239//18 
f 239//18 238//18 240//18 
f 239//18 240//18 241//18 
f 241//18 240//18 242//18 
f 241//18 242//18 243//18 
f 243//18 242//18 244//18 
f 243//18 244//18 245//18 
f 245//18 244//18 246//18 
f 247//22 248//22 249//22 
f 249//22 248//22 250//22 
f 249//22 250//22 251//22 
f 251//22 250//22 252//22 
f 251//22 252//22 253//22 
f 253//22 252//22 254//22 
f 253//22 254//22 255//22 
f 255//22 254//22 256//22 
f 255//22 256//22 257//22 
f 257//22 256//22 258//22 
f 257//22 258//22 259//22 
f 259//22 258//22 260//22 
f 259//22 260//22 261//22 
f 262//19 263//19 264//19 
f 264//19 263//19 265//19 
f 264//19 265//19 266//19 
f 266//19 265//19 267//19 
f 266//19 267//19 268//19 
f 268//19 267//19 269//19 
f 268//19 269//19 270//19 
f 271//16 272//16 273//16 
f 273//16 272//16 274//16 
f 273//16 274//16 275//16 
f 275//16 274//16 276//16 
f 275//16 276//16 277//16 
f 277//16 276//16 278//16 
f 277//16 278//16 279//16 
f 279//16 278//16 280//16 
f 281//12 282//12 283//12 
f 283//12 282//12 284//12 
# 0 polygons - 160 triangles

