# 3ds Max Wavefront OBJ Exporter v0.97b - (c)2007 guruware
# File Created: 17.02.2019 21:30:05

mtllib 11.mtl

#
# object _model11_prt___97D6F6FCC27A8E96F5F0C666ABEB070880B8ECA6___916805EDBA0560612399D442303A9E340EF39836
#

v  -0.262 0.000 -0.062
v  -0.262 5.039 -0.062
v  -0.262 5.039 -0.849
v  -0.262 0.000 -0.849
v  0.447 0.000 -0.062
v  0.447 0.000 -0.849
v  0.447 2.559 -0.062
v  0.447 2.559 -0.849
v  0.624 2.717 -0.062
v  0.624 2.717 -0.849
v  0.624 3.031 -0.062
v  0.624 3.031 -0.849
v  -0.006 3.031 -0.062
v  -0.006 3.031 -0.849
v  -0.006 4.764 -0.062
v  -0.006 4.764 -0.849
v  0.329 4.764 -0.062
v  0.329 4.764 -0.849
v  0.329 5.039 -0.062
v  0.329 5.039 -0.849
v  0.250 2.559 -0.849
v  -0.065 2.559 -0.849
v  -0.065 0.197 -0.849
v  0.250 0.197 -0.849
v  -0.065 0.197 -0.062
v  -0.065 2.559 -0.062
v  0.250 2.559 -0.062
v  0.250 0.197 -0.062
v  -0.015 0.247 -0.298
v  -0.015 2.509 -0.298
v  0.200 0.247 -0.298
v  0.200 2.509 -0.298
v  -0.015 2.509 -0.613
v  -0.015 0.247 -0.613
v  0.200 0.247 -0.613
v  0.200 2.509 -0.613
# 36 vertices

vn -2.540 0.000 -0.000
vn 0.000 -2.540 -0.000
vn 2.540 -0.000 -0.000
vn 1.687 -1.898 -0.000
vn 0.000 2.540 -0.000
vn -0.000 -2.540 -0.000
vn 2.540 0.000 -0.000
vn 0.000 0.000 -2.540
vn 0.000 0.000 2.540
vn 2.484 0.000 0.528
vn 0.000 2.484 0.528
vn -2.484 0.000 0.528
vn 0.000 -2.484 0.528
vn 2.484 0.000 -0.528
vn 0.000 2.484 -0.528
vn -2.484 -0.000 -0.528
vn -0.000 -2.484 -0.528
vn -0.000 -0.000 -2.540
# 18 vertex normals

vt -12.800 -2.000 0.000
vt 0.000 -2.000 0.000
vt -12.800 0.000 0.000
vt 0.000 0.000 0.000
vt -1.800 -2.000 0.000
vt -1.800 0.000 0.000
vt -6.500 -2.000 0.000
vt -0.000 -2.000 0.000
vt -6.500 0.000 0.000
vt -0.602 -2.000 0.000
vt -0.602 0.000 0.000
vt -0.000 0.000 0.000
vt -0.800 -2.000 0.000
vt -0.800 0.000 0.000
vt -1.600 -2.000 0.000
vt -1.600 0.000 0.000
vt -4.400 -2.000 0.000
vt -4.400 0.000 0.000
vt -0.850 -2.000 0.000
vt -0.850 0.000 0.000
vt -0.700 -2.000 0.000
vt -0.700 0.000 0.000
vt -1.500 -2.000 0.000
vt -1.500 0.000 0.000
vt 12.800 0.000 0.000
vt 6.500 0.500 0.000
vt 0.500 0.500 0.000
vt 0.500 1.300 0.000
vt 12.800 1.500 0.000
vt 12.100 0.650 0.000
vt 7.700 0.650 0.000
vt 6.500 1.300 0.000
vt 7.700 2.250 0.000
vt 6.500 1.800 0.000
vt 6.900 2.250 0.000
vt 12.100 1.500 0.000
vt -0.000 1.800 0.000
vt -6.500 0.500 0.000
vt -7.700 0.650 0.000
vt -12.100 0.650 0.000
vt 0.000 1.800 0.000
vt -0.500 1.300 0.000
vt -0.500 0.500 0.000
vt -6.500 1.800 0.000
vt -6.500 1.300 0.000
vt -7.700 2.250 0.000
vt -6.900 2.250 0.000
vt -12.100 1.500 0.000
vt -12.800 1.500 0.000
vt 6.000 0.000 0.000
vt 0.128 0.613 0.000
vt 5.872 0.613 0.000
vt -0.000 -0.000 0.000
vt 0.800 0.000 0.000
vt 0.672 0.613 0.000
vt -6.372 0.628 0.000
vt -0.628 0.628 0.000
vt -6.372 1.172 0.000
vt -0.628 1.172 0.000
vt 5.872 -0.613 0.000
vt 0.128 -0.613 0.000
vt 0.672 -0.613 0.000
vt 0.628 0.628 0.000
vt 6.372 0.628 0.000
vt 0.628 1.172 0.000
vt 6.372 1.172 0.000
# 66 texture coords

o _model11_prt___97D6F6FCC27A8E96F5F0C666ABEB070880B8ECA6___916805EDBA0560612399D442303A9E340EF39836
g _model11_prt___97D6F6FCC27A8E96F5F0C666ABEB070880B8ECA6___916805EDBA0560612399D442303A9E340EF39836
usemtl Orange
s off
f 1/1/1 2/2/1 4/3/1 
f 4/3/1 2/2/1 3/4/1 
f 5/5/2 1/2/2 6/6/2 
f 6/6/2 1/2/2 4/4/2 
f 7/7/3 5/8/3 8/9/3 
f 8/9/3 5/8/3 6/4/3 
f 9/10/4 7/8/4 10/11/4 
f 10/11/4 7/8/4 8/12/4 
f 11/13/3 9/8/3 12/14/3 
f 12/14/3 9/8/3 10/4/3 
f 13/15/5 11/2/5 14/16/5 
f 14/16/5 11/2/5 12/4/5 
f 15/17/3 13/8/3 16/18/3 
f 16/18/3 13/8/3 14/4/3 
f 17/19/6 15/2/6 18/20/6 
f 18/20/6 15/2/6 16/4/6 
f 19/21/7 17/8/7 20/22/7 
f 20/22/7 17/8/7 18/4/7 
f 2/23/5 19/2/5 3/24/5 
f 3/24/5 19/2/5 20/4/5 
f 3/25/8 22/26/8 4/12/8 
f 4/12/8 22/26/8 23/27/8 
f 4/12/8 23/27/8 24/28/8 
f 20/29/8 16/30/8 3/25/8 
f 3/25/8 16/30/8 14/31/8 
f 3/25/8 14/31/8 22/26/8 
f 22/26/8 14/31/8 21/32/8 
f 21/32/8 14/31/8 12/33/8 
f 21/32/8 12/33/8 8/34/8 
f 8/34/8 12/33/8 10/35/8 
f 20/29/8 18/36/8 16/30/8 
f 21/32/8 8/34/8 24/28/8 
f 24/28/8 8/34/8 6/37/8 
f 24/28/8 6/37/8 4/12/8 
f 1/4/9 26/38/9 2/3/9 
f 2/3/9 26/38/9 13/39/9 
f 2/3/9 13/39/9 15/40/9 
f 5/41/9 28/42/9 1/4/9 
f 1/4/9 28/42/9 25/43/9 
f 1/4/9 25/43/9 26/38/9 
f 5/41/9 7/44/9 28/42/9 
f 28/42/9 7/44/9 27/45/9 
f 27/45/9 7/44/9 11/46/9 
f 27/45/9 11/46/9 13/39/9 
f 7/44/9 9/47/9 11/46/9 
f 17/48/9 19/49/9 15/40/9 
f 15/40/9 19/49/9 2/3/9 
f 26/38/9 27/45/9 13/39/9 
f 26/12/10 25/50/10 30/51/10 
f 30/51/10 25/50/10 29/52/10 
f 25/53/11 28/54/11 29/51/11 
f 29/51/11 28/54/11 31/55/11 
f 28/12/12 27/50/12 31/51/12 
f 31/51/12 27/50/12 32/52/12 
f 27/12/13 26/54/13 32/51/13 
f 32/51/13 26/54/13 30/55/13 
f 30/56/9 29/57/9 32/58/9 
f 32/58/9 29/57/9 31/59/9 
f 23/50/14 22/12/14 34/60/14 
f 34/60/14 22/12/14 33/61/14 
f 24/54/15 23/12/15 35/62/15 
f 35/62/15 23/12/15 34/61/15 
f 21/50/16 24/12/16 36/60/16 
f 36/60/16 24/12/16 35/61/16 
f 22/54/17 21/12/17 33/62/17 
f 33/62/17 21/12/17 36/61/17 
f 34/63/18 33/64/18 35/65/18 
f 35/65/18 33/64/18 36/66/18 
# 0 polygons - 68 triangles

#
# object _model11_prt___97D6F6FCC27A8E96F5F0C666ABEB070880B8ECA6___9880BEEBA3767B5EC68669DD2CBCA49BBB429D44_jt_obj_1
#

v  -0.262 0.000 -0.062
v  -0.262 5.039 -0.062
v  -0.262 0.000 -0.849
v  -0.262 5.039 -0.849
v  -0.262 0.000 -0.849
v  0.447 0.000 -0.849
v  -0.262 0.000 -0.062
v  0.447 0.000 -0.062
v  0.447 2.559 -0.062
v  0.447 0.000 -0.062
v  0.447 2.559 -0.849
v  0.447 0.000 -0.849
v  0.624 2.717 -0.062
v  0.447 2.559 -0.062
v  0.624 2.717 -0.849
v  0.447 2.559 -0.849
v  0.624 3.031 -0.062
v  0.624 2.717 -0.062
v  0.624 3.031 -0.849
v  0.624 2.717 -0.849
v  -0.006 3.031 -0.062
v  0.624 3.031 -0.062
v  -0.006 3.031 -0.849
v  0.624 3.031 -0.849
v  -0.006 4.764 -0.062
v  -0.006 3.031 -0.062
v  -0.006 4.764 -0.849
v  -0.006 3.031 -0.849
v  0.329 4.764 -0.062
v  -0.006 4.764 -0.062
v  0.329 4.764 -0.849
v  -0.006 4.764 -0.849
v  0.329 4.764 -0.849
v  0.329 5.039 -0.849
v  0.329 4.764 -0.062
v  0.329 5.039 -0.062
v  0.329 5.039 -0.849
v  -0.262 5.039 -0.849
v  0.329 5.039 -0.062
v  -0.262 5.039 -0.062
v  0.329 4.764 -0.849
v  -0.006 4.764 -0.849
v  0.329 5.039 -0.849
v  -0.006 4.764 -0.849
v  -0.262 5.039 -0.849
v  -0.006 3.031 -0.849
v  -0.065 2.559 -0.849
v  -0.006 3.031 -0.849
v  0.250 2.559 -0.849
v  0.447 2.559 -0.849
v  0.250 0.197 -0.849
v  0.447 0.000 -0.849
v  -0.065 0.197 -0.849
v  -0.262 0.000 -0.849
v  -0.065 2.559 -0.849
v  -0.262 5.039 -0.849
v  0.447 2.559 -0.849
v  -0.006 3.031 -0.849
v  0.624 2.717 -0.849
v  0.624 3.031 -0.849
v  -0.015 2.509 -0.613
v  -0.015 0.247 -0.613
v  -0.065 2.559 -0.849
v  -0.065 0.197 -0.849
v  0.200 0.247 -0.613
v  0.250 0.197 -0.849
v  -0.015 0.247 -0.613
v  -0.065 0.197 -0.849
v  0.200 2.509 -0.613
v  0.250 2.559 -0.849
v  0.200 0.247 -0.613
v  0.250 0.197 -0.849
v  -0.015 2.509 -0.613
v  -0.065 2.559 -0.849
v  0.200 2.509 -0.613
v  0.250 2.559 -0.849
v  -0.015 0.247 -0.613
v  -0.015 2.509 -0.613
v  0.200 0.247 -0.613
v  0.200 2.509 -0.613
v  0.329 4.764 -0.062
v  0.329 5.039 -0.062
v  -0.006 4.764 -0.062
v  -0.262 5.039 -0.062
v  -0.006 3.031 -0.062
v  -0.065 2.559 -0.062
v  -0.006 3.031 -0.062
v  0.250 2.559 -0.062
v  0.624 3.031 -0.062
v  0.447 2.559 -0.062
v  0.624 2.717 -0.062
v  0.250 2.559 -0.062
v  0.250 0.197 -0.062
v  0.447 2.559 -0.062
v  0.250 0.197 -0.062
v  0.447 0.000 -0.062
v  -0.065 0.197 -0.062
v  -0.262 0.000 -0.062
v  -0.065 2.559 -0.062
v  -0.262 5.039 -0.062
v  -0.065 0.197 -0.062
v  -0.015 0.247 -0.298
v  -0.065 2.559 -0.062
v  -0.015 2.509 -0.298
v  -0.065 0.197 -0.062
v  0.250 0.197 -0.062
v  -0.015 0.247 -0.298
v  0.200 0.247 -0.298
v  0.250 0.197 -0.062
v  0.250 2.559 -0.062
v  0.200 0.247 -0.298
v  0.200 2.509 -0.298
v  0.200 2.509 -0.298
v  0.250 2.559 -0.062
v  -0.015 2.509 -0.298
v  -0.065 2.559 -0.062
v  0.200 0.247 -0.298
v  0.200 2.509 -0.298
v  -0.015 0.247 -0.298
v  -0.015 2.509 -0.298
# 120 vertices

vn -0.025 0.000 -0.000
vn 0.000 -0.025 -0.000
vn 0.025 -0.000 -0.000
vn 0.017 -0.019 -0.000
vn 0.000 0.025 -0.000
vn -0.000 -0.025 -0.000
vn 0.000 0.000 -0.025
vn 0.025 0.000 -0.005
vn 0.000 0.025 -0.005
vn -0.025 -0.000 -0.005
vn -0.000 -0.025 -0.005
vn -0.000 -0.000 -0.025
vn 0.000 0.000 0.025
vn 0.025 0.000 0.005
vn 0.000 0.025 0.005
vn -0.025 0.000 0.005
vn 0.000 -0.025 0.005
# 17 vertex normals

o _model11_prt___97D6F6FCC27A8E96F5F0C666ABEB070880B8ECA6___9880BEEBA3767B5EC68669DD2CBCA49BBB429D44_jt_obj_1
g _model11_prt___97D6F6FCC27A8E96F5F0C666ABEB070880B8ECA6___9880BEEBA3767B5EC68669DD2CBCA49BBB429D44_jt_obj_1
usemtl Orange
s off
f 37//19 38//19 39//19 
f 39//19 38//19 40//19 
f 41//20 42//20 43//20 
f 43//20 42//20 44//20 
f 45//21 46//21 47//21 
f 47//21 46//21 48//21 
f 49//22 50//22 51//22 
f 51//22 50//22 52//22 
f 53//21 54//21 55//21 
f 55//21 54//21 56//21 
f 57//23 58//23 59//23 
f 59//23 58//23 60//23 
f 61//21 62//21 63//21 
f 63//21 62//21 64//21 
f 65//24 66//24 67//24 
f 67//24 66//24 68//24 
f 69//21 70//21 71//21 
f 71//21 70//21 72//21 
f 73//23 74//23 75//23 
f 75//23 74//23 76//23 
f 77//25 78//25 79//25 
f 79//25 78//25 80//25 
f 79//25 80//25 81//25 
f 81//25 80//25 82//25 
f 81//25 82//25 83//25 
f 83//25 82//25 84//25 
f 83//25 84//25 85//25 
f 85//25 84//25 86//25 
f 85//25 86//25 87//25 
f 87//25 86//25 88//25 
f 87//25 88//25 89//25 
f 89//25 88//25 90//25 
f 89//25 90//25 91//25 
f 91//25 90//25 92//25 
f 93//25 94//25 95//25 
f 95//25 94//25 96//25 
f 97//26 98//26 99//26 
f 99//26 98//26 100//26 
f 101//27 102//27 103//27 
f 103//27 102//27 104//27 
f 105//28 106//28 107//28 
f 107//28 106//28 108//28 
f 109//29 110//29 111//29 
f 111//29 110//29 112//29 
f 113//30 114//30 115//30 
f 115//30 114//30 116//30 
f 117//31 118//31 119//31 
f 119//31 118//31 120//31 
f 119//31 120//31 121//31 
f 121//31 120//31 122//31 
f 121//31 122//31 123//31 
f 123//31 122//31 124//31 
f 123//31 124//31 125//31 
f 125//31 124//31 126//31 
f 125//31 126//31 127//31 
f 128//31 129//31 130//31 
f 130//31 129//31 131//31 
f 130//31 131//31 132//31 
f 132//31 131//31 133//31 
f 132//31 133//31 134//31 
f 134//31 133//31 135//31 
f 134//31 135//31 136//31 
f 137//32 138//32 139//32 
f 139//32 138//32 140//32 
f 141//33 142//33 143//33 
f 143//33 142//33 144//33 
f 145//34 146//34 147//34 
f 147//34 146//34 148//34 
f 149//35 150//35 151//35 
f 151//35 150//35 152//35 
f 153//31 154//31 155//31 
f 155//31 154//31 156//31 
# 0 polygons - 72 triangles

