# Blender v2.79 (sub 0) OBJ File: ''
# www.blender.org
mtllib transparent.mtl
o é€æ˜ç›˜
v 7.035957 1.000000 -28.927605
v 10.739769 1.000000 -63.946869
v 2.527016 1.000000 -29.802063
v 4.102913 1.000000 -64.806137
v -2.062565 1.000000 -29.977982
v 24.873604 1.000000 15.330563
v 57.228180 1.000000 29.061096
v 26.911591 1.000000 11.214516
v 59.908112 1.000000 22.928890
v 28.297379 1.000000 6.835609
v 2.527016 1.000000 29.802063
v 10.739769 1.000000 63.946869
v 7.035957 1.000000 28.927608
v 17.253082 1.000000 62.409744
v 11.358574 1.000000 27.375111
v -15.245079 1.000000 26.355370
v -28.467922 1.000000 58.870651
v -11.053993 1.000000 28.234200
v -22.268742 1.000000 61.391804
v -6.625221 1.000000 29.451252
v 26.911591 1.000000 -11.214508
v 57.228180 1.000000 -29.061089
v 24.873604 1.000000 -15.330559
v 53.931923 1.000000 -34.885254
v 22.231194 1.000000 -19.087265
v 19.046288 1.000000 22.396595
v 45.636406 1.000000 45.366371
v 22.231194 1.000000 19.087276
v 50.054298 1.000000 40.339615
v 53.931923 1.000000 34.885254
v 23.573830 1.000000 60.211060
v 29.635002 1.000000 57.374126
v 15.393539 1.000000 25.180965
v 35.372360 1.000000 53.929008
v 40.725067 1.000000 49.912231
v -15.843189 1.000000 63.262188
v -9.259380 1.000000 64.461975
v -2.062565 1.000000 29.977985
v -2.587101 1.000000 64.978455
v 4.102913 1.000000 64.806145
v 15.393539 1.000000 -25.180962
v 29.635002 1.000000 -57.374115
v 11.358574 1.000000 -27.375107
v 23.573830 1.000000 -60.211060
v 17.253082 1.000000 -62.409744
v -22.529133 1.000000 20.802979
v -45.066254 1.000000 47.702549
v -19.100246 1.000000 23.858788
v -39.927414 1.000000 51.989555
v -34.375019 1.000000 55.725456
v -19.100246 1.000000 -23.858780
v -45.066254 1.000000 -47.702545
v -22.529133 1.000000 -20.802971
v -49.737061 1.000000 -42.909889
v -25.451366 1.000000 -17.259560
v 50.054298 1.000000 -40.339615
v 45.636406 1.000000 -45.366364
v 19.046288 1.000000 -22.396591
v 40.725067 1.000000 -49.912224
v 35.372360 1.000000 -53.929001
v 28.998489 1.000000 -2.296478
v 63.312225 1.000000 -10.002884
v 28.297379 1.000000 -6.835602
v 61.943306 1.000000 -16.553619
v 59.908112 1.000000 -22.928886
v 61.943306 1.000000 16.553627
v 63.312225 1.000000 10.002892
v 28.998489 1.000000 2.296478
v 64.000320 1.000000 3.346123
v 29.086517 1.000000 0.000000
v 64.086517 1.000000 0.000000
v 64.000320 1.000000 -3.346115
v -27.798450 1.000000 13.311596
v -57.482025 1.000000 32.015629
v -25.451366 1.000000 17.259563
v -53.890327 1.000000 37.662376
v -49.737061 1.000000 42.909889
v -29.515377 1.000000 -9.051620
v -64.539101 1.000000 -13.295876
v -30.561897 1.000000 -4.579475
v -65.568977 1.000000 -6.683365
v -30.913486 1.000000 0.000000
v -65.913483 1.000000 0.000000
v -30.561897 1.000000 4.579479
v -53.890327 1.000000 -37.662369
v -57.482025 1.000000 -32.015617
v -27.798450 1.000000 -13.311592
v -60.474083 1.000000 -26.029503
v -62.834785 1.000000 -19.767464
v -11.053993 1.000000 -28.234200
v -28.467922 1.000000 -58.870644
v -15.245079 1.000000 -26.355370
v -34.375019 1.000000 -55.725456
v -39.927414 1.000000 -51.989555
v -2.587101 1.000000 -64.978455
v -9.259380 1.000000 -64.461975
v -6.625221 1.000000 -29.451248
v -15.843189 1.000000 -63.262192
v -22.268742 1.000000 -61.391800
v -65.568977 1.000000 6.683369
v -64.539101 1.000000 13.295887
v -29.515377 1.000000 9.051620
v -62.834785 1.000000 19.767464
v -60.474083 1.000000 26.029507
v -29.515377 -1.000000 9.051620
v -64.539101 -1.000000 13.295887
v -30.561897 -1.000000 4.579479
v -65.568977 -1.000000 6.683369
v -30.913486 -1.000000 0.000000
v -65.913483 -1.000000 0.000000
v -30.561897 -1.000000 -4.579475
v -25.451366 -1.000000 17.259563
v -57.482025 -1.000000 32.015629
v -27.798450 -1.000000 13.311596
v -60.474083 -1.000000 26.029507
v -62.834785 -1.000000 19.767464
v -2.062565 -1.000000 29.977985
v -9.259380 -1.000000 64.461975
v -6.625221 -1.000000 29.451252
v -15.843189 -1.000000 63.262188
v -11.053993 -1.000000 28.234200
v 7.035957 -1.000000 28.927608
v 10.739769 -1.000000 63.946869
v 2.527016 -1.000000 29.802063
v 4.102913 -1.000000 64.806145
v -2.587101 -1.000000 64.978455
v -15.245079 -1.000000 -26.355370
v -28.467922 -1.000000 -58.870644
v -11.053993 -1.000000 -28.234200
v -22.268742 -1.000000 -61.391800
v -6.625221 -1.000000 -29.451248
v -22.529133 -1.000000 -20.802971
v -45.066254 -1.000000 -47.702545
v -19.100246 -1.000000 -23.858780
v -39.927414 -1.000000 -51.989555
v -34.375019 -1.000000 -55.725456
v -19.100246 -1.000000 23.858788
v -45.066254 -1.000000 47.702549
v -22.529133 -1.000000 20.802979
v -49.737061 -1.000000 42.909889
v -53.890327 -1.000000 37.662376
v -22.268742 -1.000000 61.391804
v -28.467922 -1.000000 58.870651
v -15.245079 -1.000000 26.355370
v -34.375019 -1.000000 55.725456
v -39.927414 -1.000000 51.989555
v 24.873604 -1.000000 -15.330559
v 57.228180 -1.000000 -29.061089
v 26.911591 -1.000000 -11.214508
v 59.908112 -1.000000 -22.928886
v 28.297379 -1.000000 -6.835602
v -27.798450 -1.000000 -13.311592
v -57.482025 -1.000000 -32.015617
v -25.451366 -1.000000 -17.259560
v -53.890327 -1.000000 -37.662369
v -49.737061 -1.000000 -42.909889
v -65.568977 -1.000000 -6.683365
v -64.539101 -1.000000 -13.295876
v -29.515377 -1.000000 -9.051620
v -62.834785 -1.000000 -19.767464
v -60.474083 -1.000000 -26.029503
v 2.527016 -1.000000 -29.802063
v 10.739769 -1.000000 -63.946869
v 7.035957 -1.000000 -28.927605
v 17.253082 -1.000000 -62.409744
v 11.358574 -1.000000 -27.375107
v 15.393539 -1.000000 25.180965
v 29.635002 -1.000000 57.374126
v 11.358574 -1.000000 27.375111
v 23.573830 -1.000000 60.211060
v 17.253082 -1.000000 62.409744
v 22.231194 -1.000000 19.087276
v 45.636406 -1.000000 45.366371
v 19.046288 -1.000000 22.396595
v 40.725067 -1.000000 49.912231
v 35.372360 -1.000000 53.929008
v 26.911591 -1.000000 11.214516
v 57.228180 -1.000000 29.061096
v 24.873604 -1.000000 15.330563
v 53.931923 -1.000000 34.885254
v 50.054298 -1.000000 40.339615
v 28.998489 -1.000000 2.296478
v 63.312225 -1.000000 10.002892
v 28.297379 -1.000000 6.835609
v 61.943306 -1.000000 16.553627
v 59.908112 -1.000000 22.928890
v -15.843189 -1.000000 -63.262192
v -9.259380 -1.000000 -64.461975
v -2.062565 -1.000000 -29.977982
v -2.587101 -1.000000 -64.978455
v 4.102913 -1.000000 -64.806137
v 61.943306 -1.000000 -16.553619
v 63.312225 -1.000000 -10.002884
v 28.998489 -1.000000 -2.296478
v 64.000320 -1.000000 -3.346115
v 29.086517 -1.000000 0.000000
v 64.086517 -1.000000 0.000000
v 64.000320 -1.000000 3.346123
v 19.046288 -1.000000 -22.396591
v 45.636406 -1.000000 -45.366364
v 22.231194 -1.000000 -19.087265
v 50.054298 -1.000000 -40.339615
v 53.931923 -1.000000 -34.885254
v 23.573830 -1.000000 -60.211060
v 29.635002 -1.000000 -57.374115
v 15.393539 -1.000000 -25.180962
v 35.372360 -1.000000 -53.929001
v 40.725067 -1.000000 -49.912224
vn 0.0000 1.0000 0.0000
vn 0.0000 -1.0000 0.0000
vn 0.9997 0.0000 -0.0258
vn 0.9997 0.0000 0.0258
vn 0.9947 0.0000 -0.1028
vn 0.9789 0.0000 -0.2046
vn 0.9526 0.0000 -0.3041
vn 0.9163 0.0000 -0.4005
vn 0.8703 0.0000 -0.4925
vn 0.8150 0.0000 -0.5794
vn 0.7511 0.0000 -0.6602
vn 0.6793 0.0000 -0.7339
vn 0.6002 0.0000 -0.7998
vn 0.5148 0.0000 -0.8573
vn 0.4239 0.0000 -0.9057
vn 0.3285 0.0000 -0.9445
vn 0.2297 0.0000 -0.9733
vn 0.1284 0.0000 -0.9917
vn 0.0257 0.0000 -0.9997
vn -0.0772 0.0000 -0.9970
vn -0.1793 0.0000 -0.9838
vn -0.2795 0.0000 -0.9601
vn -0.3767 0.0000 -0.9263
vn -0.4700 0.0000 -0.8827
vn -0.5582 0.0000 -0.8297
vn -0.6406 0.0000 -0.7679
vn -0.7162 0.0000 -0.6979
vn -0.7841 0.0000 -0.6206
vn -0.8438 0.0000 -0.5367
vn -0.8945 0.0000 -0.4471
vn -0.9357 0.0000 -0.3528
vn -0.9670 0.0000 -0.2547
vn -0.9881 0.0000 -0.1539
vn -0.9987 0.0000 -0.0515
vn -0.9987 0.0000 0.0515
vn -0.9881 0.0000 0.1539
vn -0.9670 0.0000 0.2547
vn -0.9357 0.0000 0.3528
vn -0.8945 0.0000 0.4471
vn -0.8438 0.0000 0.5367
vn -0.7841 0.0000 0.6206
vn -0.7162 0.0000 0.6979
vn -0.6406 0.0000 0.7679
vn -0.5582 0.0000 0.8297
vn -0.4700 0.0000 0.8827
vn -0.3767 0.0000 0.9263
vn -0.2795 0.0000 0.9601
vn -0.1793 0.0000 0.9838
vn -0.0772 0.0000 0.9970
vn 0.0257 0.0000 0.9997
vn 0.1284 0.0000 0.9917
vn 0.2297 0.0000 0.9733
vn 0.3285 0.0000 0.9445
vn 0.4239 0.0000 0.9057
vn 0.5148 0.0000 0.8573
vn 0.6002 0.0000 0.7998
vn 0.6793 0.0000 0.7339
vn 0.7511 0.0000 0.6602
vn 0.8150 0.0000 0.5794
vn 0.8703 0.0000 0.4925
vn 0.9163 0.0000 0.4005
vn 0.9526 0.0000 0.3041
vn 0.9789 0.0000 0.2046
vn 0.9947 0.0000 0.1028
vn -0.9993 0.0000 -0.0383
vn -0.9993 0.0000 0.0383
vn -0.9883 0.0000 -0.1526
vn -0.9534 0.0000 -0.3017
vn -0.8962 0.0000 -0.4437
vn -0.8179 0.0000 -0.5753
vn -0.7205 0.0000 -0.6934
vn -0.6062 0.0000 -0.7953
vn -0.4777 0.0000 -0.8785
vn -0.3380 0.0000 -0.9411
vn -0.1904 0.0000 -0.9817
vn -0.0383 0.0000 -0.9993
vn 0.1147 0.0000 -0.9934
vn 0.2650 0.0000 -0.9643
vn 0.4091 0.0000 -0.9125
vn 0.5436 0.0000 -0.8394
vn 0.6653 0.0000 -0.7466
vn 0.7715 0.0000 -0.6362
vn 0.8596 0.0000 -0.5110
vn 0.9275 0.0000 -0.3738
vn 0.9737 0.0000 -0.2279
vn 0.9971 0.0000 -0.0765
vn 0.9971 0.0000 0.0765
vn 0.9737 0.0000 0.2279
vn 0.9275 0.0000 0.3738
vn 0.8596 0.0000 0.5110
vn 0.7715 0.0000 0.6362
vn 0.6653 0.0000 0.7466
vn 0.5436 0.0000 0.8394
vn 0.4091 0.0000 0.9125
vn 0.2650 0.0000 0.9643
vn 0.1147 0.0000 0.9934
vn -0.0383 0.0000 0.9993
vn -0.1904 0.0000 0.9817
vn -0.3380 0.0000 0.9411
vn -0.4777 0.0000 0.8785
vn -0.6062 0.0000 0.7953
vn -0.7205 0.0000 0.6934
vn -0.8179 0.0000 0.5753
vn -0.8962 0.0000 0.4437
vn -0.9534 0.0000 0.3017
vn -0.9883 0.0000 0.1526
usemtl None
s off
f 1//1 2//1 3//1
f 3//1 2//1 4//1
f 3//1 4//1 5//1
f 6//1 7//1 8//1
f 8//1 7//1 9//1
f 8//1 9//1 10//1
f 11//1 12//1 13//1
f 13//1 12//1 14//1
f 13//1 14//1 15//1
f 16//1 17//1 18//1
f 18//1 17//1 19//1
f 18//1 19//1 20//1
f 21//1 22//1 23//1
f 23//1 22//1 24//1
f 23//1 24//1 25//1
f 26//1 27//1 28//1
f 28//1 27//1 29//1
f 28//1 29//1 6//1
f 6//1 29//1 30//1
f 6//1 30//1 7//1
f 14//1 31//1 15//1
f 15//1 31//1 32//1
f 15//1 32//1 33//1
f 33//1 32//1 34//1
f 33//1 34//1 26//1
f 26//1 34//1 35//1
f 26//1 35//1 27//1
f 19//1 36//1 20//1
f 20//1 36//1 37//1
f 20//1 37//1 38//1
f 38//1 37//1 39//1
f 38//1 39//1 11//1
f 11//1 39//1 40//1
f 11//1 40//1 12//1
f 41//1 42//1 43//1
f 43//1 42//1 44//1
f 43//1 44//1 1//1
f 1//1 44//1 45//1
f 1//1 45//1 2//1
f 46//1 47//1 48//1
f 48//1 47//1 49//1
f 48//1 49//1 16//1
f 16//1 49//1 50//1
f 16//1 50//1 17//1
f 51//1 52//1 53//1
f 53//1 52//1 54//1
f 53//1 54//1 55//1
f 24//1 56//1 25//1
f 25//1 56//1 57//1
f 25//1 57//1 58//1
f 58//1 57//1 59//1
f 58//1 59//1 41//1
f 41//1 59//1 60//1
f 41//1 60//1 42//1
f 61//1 62//1 63//1
f 63//1 62//1 64//1
f 63//1 64//1 21//1
f 21//1 64//1 65//1
f 21//1 65//1 22//1
f 9//1 66//1 10//1
f 10//1 66//1 67//1
f 10//1 67//1 68//1
f 68//1 67//1 69//1
f 68//1 69//1 70//1
f 70//1 69//1 71//1
f 70//1 71//1 61//1
f 61//1 71//1 72//1
f 61//1 72//1 62//1
f 73//1 74//1 75//1
f 75//1 74//1 76//1
f 75//1 76//1 46//1
f 46//1 76//1 77//1
f 46//1 77//1 47//1
f 78//1 79//1 80//1
f 80//1 79//1 81//1
f 80//1 81//1 82//1
f 82//1 81//1 83//1
f 82//1 83//1 84//1
f 54//1 85//1 55//1
f 55//1 85//1 86//1
f 55//1 86//1 87//1
f 87//1 86//1 88//1
f 87//1 88//1 78//1
f 78//1 88//1 89//1
f 78//1 89//1 79//1
f 90//1 91//1 92//1
f 92//1 91//1 93//1
f 92//1 93//1 51//1
f 51//1 93//1 94//1
f 51//1 94//1 52//1
f 4//1 95//1 5//1
f 5//1 95//1 96//1
f 5//1 96//1 97//1
f 97//1 96//1 98//1
f 97//1 98//1 90//1
f 90//1 98//1 99//1
f 90//1 99//1 91//1
f 83//1 100//1 84//1
f 84//1 100//1 101//1
f 84//1 101//1 102//1
f 102//1 101//1 103//1
f 102//1 103//1 73//1
f 73//1 103//1 104//1
f 73//1 104//1 74//1
f 105//2 106//2 107//2
f 107//2 106//2 108//2
f 107//2 108//2 109//2
f 109//2 108//2 110//2
f 109//2 110//2 111//2
f 112//2 113//2 114//2
f 114//2 113//2 115//2
f 114//2 115//2 105//2
f 105//2 115//2 116//2
f 105//2 116//2 106//2
f 117//2 118//2 119//2
f 119//2 118//2 120//2
f 119//2 120//2 121//2
f 122//2 123//2 124//2
f 124//2 123//2 125//2
f 124//2 125//2 117//2
f 117//2 125//2 126//2
f 117//2 126//2 118//2
f 127//2 128//2 129//2
f 129//2 128//2 130//2
f 129//2 130//2 131//2
f 132//2 133//2 134//2
f 134//2 133//2 135//2
f 134//2 135//2 127//2
f 127//2 135//2 136//2
f 127//2 136//2 128//2
f 137//2 138//2 139//2
f 139//2 138//2 140//2
f 139//2 140//2 112//2
f 112//2 140//2 141//2
f 112//2 141//2 113//2
f 120//2 142//2 121//2
f 121//2 142//2 143//2
f 121//2 143//2 144//2
f 144//2 143//2 145//2
f 144//2 145//2 137//2
f 137//2 145//2 146//2
f 137//2 146//2 138//2
f 147//2 148//2 149//2
f 149//2 148//2 150//2
f 149//2 150//2 151//2
f 152//2 153//2 154//2
f 154//2 153//2 155//2
f 154//2 155//2 132//2
f 132//2 155//2 156//2
f 132//2 156//2 133//2
f 110//2 157//2 111//2
f 111//2 157//2 158//2
f 111//2 158//2 159//2
f 159//2 158//2 160//2
f 159//2 160//2 152//2
f 152//2 160//2 161//2
f 152//2 161//2 153//2
f 162//2 163//2 164//2
f 164//2 163//2 165//2
f 164//2 165//2 166//2
f 167//2 168//2 169//2
f 169//2 168//2 170//2
f 169//2 170//2 122//2
f 122//2 170//2 171//2
f 122//2 171//2 123//2
f 172//2 173//2 174//2
f 174//2 173//2 175//2
f 174//2 175//2 167//2
f 167//2 175//2 176//2
f 167//2 176//2 168//2
f 177//2 178//2 179//2
f 179//2 178//2 180//2
f 179//2 180//2 172//2
f 172//2 180//2 181//2
f 172//2 181//2 173//2
f 182//2 183//2 184//2
f 184//2 183//2 185//2
f 184//2 185//2 177//2
f 177//2 185//2 186//2
f 177//2 186//2 178//2
f 130//2 187//2 131//2
f 131//2 187//2 188//2
f 131//2 188//2 189//2
f 189//2 188//2 190//2
f 189//2 190//2 162//2
f 162//2 190//2 191//2
f 162//2 191//2 163//2
f 150//2 192//2 151//2
f 151//2 192//2 193//2
f 151//2 193//2 194//2
f 194//2 193//2 195//2
f 194//2 195//2 196//2
f 196//2 195//2 197//2
f 196//2 197//2 182//2
f 182//2 197//2 198//2
f 182//2 198//2 183//2
f 199//2 200//2 201//2
f 201//2 200//2 202//2
f 201//2 202//2 147//2
f 147//2 202//2 203//2
f 147//2 203//2 148//2
f 165//2 204//2 166//2
f 166//2 204//2 205//2
f 166//2 205//2 206//2
f 206//2 205//2 207//2
f 206//2 207//2 199//2
f 199//2 207//2 208//2
f 199//2 208//2 200//2
f 72//3 71//3 197//3
f 197//4 71//4 198//4
f 197//3 195//3 72//3
f 72//5 195//5 193//5
f 72//5 193//5 62//5
f 62//6 193//6 192//6
f 62//6 192//6 64//6
f 64//7 192//7 150//7
f 64//7 150//7 65//7
f 65//8 150//8 148//8
f 65//8 148//8 22//8
f 22//9 148//9 203//9
f 22//9 203//9 24//9
f 24//10 203//10 202//10
f 24//10 202//10 56//10
f 56//11 202//11 200//11
f 56//11 200//11 57//11
f 57//12 200//12 208//12
f 57//12 208//12 59//12
f 59//13 208//13 207//13
f 59//13 207//13 60//13
f 60//14 207//14 205//14
f 60//14 205//14 42//14
f 42//15 205//15 204//15
f 42//15 204//15 44//15
f 44//16 204//16 165//16
f 44//16 165//16 45//16
f 45//17 165//17 163//17
f 45//17 163//17 2//17
f 2//18 163//18 191//18
f 2//18 191//18 4//18
f 4//19 191//19 190//19
f 4//19 190//19 95//19
f 95//20 190//20 188//20
f 95//20 188//20 96//20
f 96//21 188//21 187//21
f 96//21 187//21 98//21
f 98//22 187//22 130//22
f 98//22 130//22 99//22
f 99//23 130//23 128//23
f 99//23 128//23 91//23
f 91//24 128//24 136//24
f 91//24 136//24 93//24
f 93//25 136//25 135//25
f 93//25 135//25 94//25
f 94//26 135//26 133//26
f 94//26 133//26 52//26
f 52//27 133//27 156//27
f 52//27 156//27 54//27
f 54//28 156//28 155//28
f 54//28 155//28 85//28
f 85//29 155//29 153//29
f 85//29 153//29 86//29
f 86//30 153//30 161//30
f 86//30 161//30 88//30
f 88//31 161//31 160//31
f 88//31 160//31 89//31
f 89//32 160//32 158//32
f 89//32 158//32 79//32
f 79//33 158//33 157//33
f 79//33 157//33 81//33
f 81//34 157//34 110//34
f 81//34 110//34 83//34
f 83//35 110//35 108//35
f 83//35 108//35 100//35
f 100//36 108//36 106//36
f 100//36 106//36 101//36
f 101//37 106//37 116//37
f 101//37 116//37 103//37
f 103//38 116//38 115//38
f 103//38 115//38 104//38
f 104//39 115//39 113//39
f 104//39 113//39 74//39
f 74//40 113//40 141//40
f 74//40 141//40 76//40
f 76//41 141//41 140//41
f 76//41 140//41 77//41
f 77//42 140//42 138//42
f 77//42 138//42 47//42
f 47//43 138//43 146//43
f 47//43 146//43 49//43
f 49//44 146//44 145//44
f 49//44 145//44 50//44
f 50//45 145//45 143//45
f 50//45 143//45 17//45
f 17//46 143//46 142//46
f 17//46 142//46 19//46
f 19//47 142//47 120//47
f 19//47 120//47 36//47
f 36//48 120//48 118//48
f 36//48 118//48 37//48
f 37//49 118//49 126//49
f 37//49 126//49 39//49
f 39//50 126//50 125//50
f 39//50 125//50 40//50
f 40//51 125//51 123//51
f 40//51 123//51 12//51
f 12//52 123//52 171//52
f 12//52 171//52 14//52
f 14//53 171//53 170//53
f 14//53 170//53 31//53
f 31//54 170//54 168//54
f 31//54 168//54 32//54
f 32//55 168//55 176//55
f 32//55 176//55 34//55
f 34//56 176//56 175//56
f 34//56 175//56 35//56
f 35//57 175//57 173//57
f 35//57 173//57 27//57
f 27//58 173//58 181//58
f 27//58 181//58 29//58
f 29//59 181//59 180//59
f 29//59 180//59 30//59
f 30//60 180//60 178//60
f 30//60 178//60 7//60
f 7//61 178//61 186//61
f 7//61 186//61 9//61
f 9//62 186//62 185//62
f 9//62 185//62 66//62
f 66//63 185//63 183//63
f 66//63 183//63 67//63
f 67//64 183//64 198//64
f 67//64 198//64 69//64
f 69//4 198//4 71//4
f 68//65 70//65 196//65
f 196//66 70//66 194//66
f 196//65 182//65 68//65
f 68//67 182//67 184//67
f 68//67 184//67 10//67
f 10//68 184//68 177//68
f 10//68 177//68 8//68
f 8//69 177//69 179//69
f 8//69 179//69 6//69
f 6//70 179//70 172//70
f 6//70 172//70 28//70
f 28//71 172//71 174//71
f 28//71 174//71 26//71
f 26//72 174//72 167//72
f 26//72 167//72 33//72
f 33//73 167//73 169//73
f 33//73 169//73 15//73
f 15//74 169//74 122//74
f 15//74 122//74 13//74
f 13//75 122//75 124//75
f 13//75 124//75 11//75
f 11//76 124//76 117//76
f 11//76 117//76 38//76
f 38//77 117//77 119//77
f 38//77 119//77 20//77
f 20//78 119//78 121//78
f 20//78 121//78 18//78
f 18//79 121//79 144//79
f 18//79 144//79 16//79
f 16//80 144//80 137//80
f 16//80 137//80 48//80
f 48//81 137//81 139//81
f 48//81 139//81 46//81
f 46//82 139//82 112//82
f 46//82 112//82 75//82
f 75//83 112//83 114//83
f 75//83 114//83 73//83
f 73//84 114//84 105//84
f 73//84 105//84 102//84
f 102//85 105//85 107//85
f 102//85 107//85 84//85
f 84//86 107//86 109//86
f 84//86 109//86 82//86
f 82//87 109//87 111//87
f 82//87 111//87 80//87
f 80//88 111//88 159//88
f 80//88 159//88 78//88
f 78//89 159//89 152//89
f 78//89 152//89 87//89
f 87//90 152//90 154//90
f 87//90 154//90 55//90
f 55//91 154//91 132//91
f 55//91 132//91 53//91
f 53//92 132//92 134//92
f 53//92 134//92 51//92
f 51//93 134//93 127//93
f 51//93 127//93 92//93
f 92//94 127//94 129//94
f 92//94 129//94 90//94
f 90//95 129//95 131//95
f 90//95 131//95 97//95
f 97//96 131//96 189//96
f 97//96 189//96 5//96
f 5//97 189//97 162//97
f 5//97 162//97 3//97
f 3//98 162//98 164//98
f 3//98 164//98 1//98
f 1//99 164//99 166//99
f 1//99 166//99 43//99
f 43//100 166//100 206//100
f 43//100 206//100 41//100
f 41//101 206//101 199//101
f 41//101 199//101 58//101
f 58//102 199//102 201//102
f 58//102 201//102 25//102
f 25//103 201//103 147//103
f 25//103 147//103 23//103
f 23//104 147//104 149//104
f 23//104 149//104 21//104
f 21//105 149//105 151//105
f 21//105 151//105 63//105
f 63//106 151//106 194//106
f 63//106 194//106 61//106
f 61//66 194//66 70//66
